<?xml version="1.0" ?>

<!-- Uploaded to: SVG Repo, www.svgrepo.com, Generator: SVG Repo Mixer Tools -->
<svg width="32px" height="32px" viewBox="0 0 64 64" xmlns="http://www.w3.org/2000/svg">

<g id="a"/>

<g id="b"/>

<g id="c"/>

<g id="d"/>

<g id="e"/>

<g id="f"/>

<g id="g"/>

<g id="h"/>

<g id="i"/>

<g id="j"/>

<g id="k"/>

<g id="l"/>

<g id="m"/>

<g id="n"/>

<g id="o"/>

<g id="p"/>

<g id="q"/>

<g id="r">

<path d="M34.55,42.29l-1.77-5.61-3.73,.11v21.21c0,.55,.45,1,1,1h3.49c.55,0,1-.45,1-1v-15.71Z" fill="#9dacb9" id="s"/>

<path d="M27.44,18.97v9.13h9.12v-9.13h-9.12Z" fill="#f0f4f6" id="t"/>

<path d="M29.38,5.05c-.29-.07-.6-.07-.89,.02l-10.48,3.22c-.43,.13-.57,.68-.25,1l6.14,6.14,.68,4.34,4.48,.81h3.16l1.07-6.54-3.78-8.93s-.08-.05-.13-.07h0Z" fill="#fd91ba" id="u"/>

<path d="M29.51,5.12l2.71,15.47h2.73l4.59-1.5,.57-3.65L30.15,5.49c-.19-.17-.41-.29-.65-.37h0Z" fill="#ffa6c5" id="v"/>

<path d="M40.1,15.43l-5.16,5.15v3.16l7.95,.3,7.55-3.01c.11-.33,.11-.68,.01-1.01l-3.22-10.48c-.13-.43-.68-.57-1-.25l-6.14,6.14Z" fill="#0acffb" id="w"/>

<path d="M50.45,21.03l-15.5,2.71v2.73l1.62,3.45,3.54,1.71,9.95-9.95c.18-.18,.32-.41,.4-.65Z" fill="#62d9fa" id="x"/>

<path d="M40.1,31.63l-5.16-5.16h-3.16l-.94,6.89,3.71,8.92,11.44-3.51c.43-.13,.57-.68,.25-1l-6.14-6.14Z" fill="#fdda5c" id="y"/>

<path d="M34.55,42.29l-2.77-15.81h-2.73l-4.46,.44-.69,4.71,5.16,5.16,5.5,5.5Z" fill="#fce87b" id="a`"/>

<path d="M23.9,31.63l5.16-5.16v-3.16l-6.12-1.11-9.35,3.82c-.12,.33-.14,.68-.05,1.02l3.22,10.48c.13,.43,.68,.57,1,.25l6.14-6.14Z" fill="#6df4c0" id="aa"/>

<path d="M13.59,26.03l15.47-2.71v-2.73l-5.16-5.16-9.95,9.95c-.17,.19-.3,.41-.37,.65Z" fill="#9af6d3" id="ab"/>

<path d="M50.45,21.03l-15.5-.45v3.16l15.5-2.71Z" fill="#00bff8" id="ac"/>

<path d="M13.59,26.03l15.5,.45v-3.16l-15.5,2.71Z" fill="#3aedbc" id="ad"/>

<path d="M29.51,5.12l-.45,15.5h3.16l-2.71-15.5Z" fill="#fc76a8" id="ae"/>

<path d="M34.55,42.29l.39-15.81h-3.16l2.77,15.81Z" fill="#f8c228" id="af"/>

<path d="M51.42,19.73l-3.22-10.48c-.13-.41-.4-.75-.78-.95-.38-.2-.81-.24-1.22-.12-.25,.08-.48,.22-.66,.4l-5.43,5.43L30.86,4.78c-.7-.7-1.72-.95-2.67-.66h0l-10.48,3.22c-.41,.13-.75,.4-.95,.78-.2,.38-.24,.81-.12,1.22,.08,.25,.21,.47,.4,.66l5.43,5.43-9.24,9.24c-.7,.7-.95,1.72-.66,2.67l3.22,10.48c.13,.41,.4,.75,.78,.95,.38,.2,.81,.24,1.22,.12,.25-.08,.48-.22,.66-.4l5.43-5.43,4.16,4.16v20.79c0,1.1,.9,2,2,2h3.49c1.1,0,2-.9,2-2v-14.97l10.73-3.29c.41-.13,.75-.4,.95-.78,.2-.38,.24-.81,.12-1.22-.08-.25-.21-.47-.4-.66l-5.43-5.43,9.24-9.24c.7-.7,.95-1.72,.66-2.67Zm-4.94-9.26l2.99,9.72-13.52,2.37v-1.55l4.86-4.86h0l5.67-5.67Zm-13.43,9.12l-2.08-11.86,7.71,7.71-4.16,4.15h-1.48Zm.89,2v3.89h-3.89v-3.89h3.89Zm-15.01-12.54l9.72-2.99,2.37,13.52h-1.55l-4.86-4.86-5.67-5.67Zm4.97,7.79l4.16,4.16v1.48l-11.87,2.08,7.71-7.71Zm-6.38,19.75l-2.99-9.72,13.52-2.37v1.55l-4.86,4.86h0l-5.67,5.67Zm7.79-4.97l4.16-4.16h1.48l2.08,11.86-3.26-3.26h0l-4.45-4.45Zm4.74,26.36v-18.79l3.5,3.5v15.3h-3.5Zm15.01-19.99l-9.72,2.99-2.37-13.52h1.55l4.86,4.86h0l5.67,5.67Zm-4.97-7.79l-4.16-4.16v-1.48l11.87-2.08-7.71,7.71Z"/>

</g>

<g id="ag"/>

<g id="ah"/>

<g id="ai"/>

<g id="aj"/>

<g id="ak"/>

<g id="al"/>

<g id="am"/>

<g id="an"/>

<g id="ao"/>

<g id="ap"/>

<g id="aq"/>

<g id="ar"/>

<g id="as"/>

<g id="at"/>

<g id="au"/>

<g id="av"/>

<g id="aw"/>

<g id="ax"/>

<g id="ay"/>

<g id="b`"/>

<g id="ba"/>

<g id="bb"/>

<g id="bc"/>

<g id="bd"/>

<g id="be"/>

<g id="bf"/>

<g id="bg"/>

<g id="bh"/>

<g id="bi"/>

<g id="bj"/>

<g id="bk"/>

<g id="bl"/>

</svg>